<svg width="138" height="138" viewBox="0 0 138 138" fill="none" xmlns="http://www.w3.org/2000/svg">
<path d="M36.3299 57.0125C21.9024 47.2573 33.7928 32.0378 43.3123 47.58" stroke="#2C4E57" stroke-width="5" stroke-linecap="round" stroke-linejoin="round"/>
<path d="M89.207 46.3261C96.2989 34.9307 113.107 36.4253 102.651 51.8751" stroke="#2C4E57" stroke-width="5" stroke-linecap="round" stroke-linejoin="round"/>
<path d="M55.6949 54.9576C55.4239 53.2795 56.2745 51.6574 56.6701 50.1626" stroke="#2C4E57" stroke-width="5" stroke-linecap="round" stroke-linejoin="round"/>
<path d="M66.9453 57.0125C67.0853 54.1408 67.2701 51.2621 67.6303 48.45" stroke="#2C4E57" stroke-width="5" stroke-linecap="round" stroke-linejoin="round"/>
<path d="M78.5898 54.9574C78.5898 53.4713 78.5898 51.9875 78.5898 50.5049" stroke="#2C4E57" stroke-width="5" stroke-linecap="round" stroke-linejoin="round"/>
<path d="M52.9023 76.8776C55.4619 76.1635 58.172 75.858 60.7798 75.5076" stroke="#2C4E57" stroke-width="5" stroke-linecap="round" stroke-linejoin="round"/>
<path d="M77.5625 75.5075C80.2665 74.9686 82.7963 75.1413 85.44 75.5075" stroke="#2C4E57" stroke-width="5" stroke-linecap="round" stroke-linejoin="round"/>
<path d="M64.8896 88.1816C76.3634 82.2691 74.938 91.1262 66.0812 89.7437" stroke="#2C4E57" stroke-width="5" stroke-linecap="round" stroke-linejoin="round"/>
<path d="M69.3423 91.9475C68.6756 99.2447 62.8254 99.885 57.6973 97.6789" stroke="#2C4E57" stroke-width="5" stroke-linecap="round" stroke-linejoin="round"/>
<path d="M69.0139 91.9475C68.6108 101.64 77.0763 100.169 81.6725 95.512" stroke="#2C4E57" stroke-width="5" stroke-linecap="round" stroke-linejoin="round"/>
<path d="M38.518 83.7276C33.4922 82.0931 28.1785 82.0033 23.1055 81.3301" stroke="#2C4E57" stroke-width="5" stroke-linecap="round" stroke-linejoin="round"/>
<path d="M40.23 91.9475C34.7047 93.2518 29.1821 94.26 23.79 96.0575" stroke="#2C4E57" stroke-width="5" stroke-linecap="round" stroke-linejoin="round"/>
<path d="M100.853 80.3024C104.792 79.2612 108.623 77.7747 112.498 76.5349" stroke="#2C4E57" stroke-width="5" stroke-linecap="round" stroke-linejoin="round"/>
<path d="M102.223 89.8925C106.284 89.3777 110.833 89.5594 114.553 89.6969" stroke="#2C4E57" stroke-width="5" stroke-linecap="round" stroke-linejoin="round"/>
</svg>
